<svg width="63" height="76" fill="none" xmlns="http://www.w3.org/2000/svg"><path d="M60.2 22.1H35.8c13.6-6.8 14.7-11 14.2-13.5-1.1-3.9-5.6-6.9-9.8-5.3-5.5 2.1-7 10.3-8.5 16.2-1.9-6-3.7-13.6-8-17.5A7.3 7.3 0 0 0 18 0c-4 .4-9.7 5.3-7.3 10.8 2.2 5.3 9.5 8.7 14.4 11.4H2.8A2.8 2.8 0 0 0 0 25v11.2C0 37.8 1.3 39 2.8 39h.3v36h57V39h.1c1.6 0 2.8-1.3 2.8-2.8V25c0-1.6-1.3-2.9-2.8-2.9ZM41.8 5.8c2.1-.3 4.9 1.3 5.2 3.2.4 2.7-3.3 5.2-5 6.3-2.5 1.7-4.9 2.6-7.2 4 .8-3.7 2.5-12.9 7-13.5Zm-22.6 9.8c-2.2-1.5-6.4-4.4-6.3-7.7.1-3.6 5.7-6.5 8.7-3.8 3.8 3.3 5.6 11 7 16.4-3.2-1.6-6.2-2.8-9.4-4.9ZM25.1 72H6V39h19.1v33Zm0-36H3V25.1h22.1v11Zm10 36H28V25.1h7.1v47Zm22 0h-19V39h19.1v33h-.1ZM60 36H38.1V25.1H60v11Z" fill="#81B3D2"/></svg>