<svg width="136" height="16" fill="none" xmlns="http://www.w3.org/2000/svg"><path d="M6.1 11.2H4.3l-.8 3.2H1.3l.7-3.2H.5l.4-2h1.6L3 6.9H1.5L2 5h1.5l.7-3h2.3l-.8 3h2l.7-3h2.2l-.7 3h1.5l-.5 2H9.4l-.5 2.3h1.4l-.5 2H8.4l-.8 3.2H5.4l.7-3.2Zm-1.4-2h2L7 6.9H5.3l-.6 2.3Zm13.4.2.3 2.5h.1l.5-2.5L21.8.8h3l-5.5 14.8h-2L11.8.8H15l3 8.6Zm8-8.6h3v14.7h-3V.8Zm12.1 10.8c0-.5-.2-.9-.5-1.1A26.3 26.3 0 0 0 34.8 9l-1.6-1A5 5 0 0 1 32 6.8c-.3-.5-.5-1.2-.5-2 0-.7.1-1.3.4-1.8.2-.6.5-1 1-1.4.4-.3 1-.6 1.5-.7.6-.2 1.3-.3 2-.3 1 0 1.7 0 2.5.2a6 6 0 0 1 1.8.7l-.9 2.4c-.3-.2-.7-.4-1.4-.5-.6-.2-1.2-.3-2-.3-.6 0-1.1.1-1.5.4-.4.3-.5.6-.5 1 0 .5.1.8.5 1.1A64.8 64.8 0 0 0 39.4 8l1.2 1.4a4.8 4.8 0 0 1 .1 4c-.3.5-.6 1-1.1 1.4-.5.4-1 .6-1.7.8-.7.2-1.4.3-2.2.3a11.7 11.7 0 0 1-4.5-.9l.9-2.4a6.1 6.1 0 0 0 1.4.5 9.8 9.8 0 0 0 2 .3c.9 0 1.6-.1 2-.4.5-.3.7-.8.7-1.3Zm5-10.8h3v14.7h-3V.8Zm16.2 2.6h-4.3v12.1h-2.8V3.4h-4.4V.8h11.5v2.6Zm7.9 8.2c0-.5-.2-.9-.5-1.1A26.3 26.3 0 0 0 63.9 9l-1.6-1A5 5 0 0 1 61 6.8c-.3-.5-.4-1.2-.4-2 0-.7 0-1.3.3-1.8.3-.6.6-1 1-1.4.5-.3 1-.6 1.6-.7.6-.2 1.3-.3 2-.3.9 0 1.7 0 2.4.2a6 6 0 0 1 1.9.7l-1 2.4c-.2-.2-.7-.4-1.3-.5-.6-.2-1.3-.3-2-.3s-1.2.1-1.5.4c-.4.3-.6.6-.6 1 0 .5.2.8.5 1.1l1.3.8A64.8 64.8 0 0 0 68.4 8c.5.3 1 .8 1.2 1.3.4.5.5 1.2.5 2 0 .7-.1 1.4-.4 2-.2.5-.6 1-1 1.4-.5.4-1 .6-1.8.8-.6.2-1.3.3-2.1.3a11.7 11.7 0 0 1-4.6-.9l1-2.4a6.1 6.1 0 0 0 1.4.5 9.8 9.8 0 0 0 2 .3c.9 0 1.5-.1 2-.4.4-.3.7-.8.7-1.3ZM72 .8h8.8v2.6h-5.9v3.4h5.3v2.5H75V13h6v2.6H72V.8Zm11 0a15.4 15.4 0 0 1 2.2-.2 31.8 31.8 0 0 1 2.1 0c1.3 0 2.4.2 3.3.5a5.7 5.7 0 0 1 3.6 4 10.7 10.7 0 0 1 0 5.8 6.3 6.3 0 0 1-3.6 4.2c-1 .4-2.2.6-3.6.6a25.7 25.7 0 0 1-4-.2V.8Zm4.5 2.4a21.8 21.8 0 0 0-1.6 0v9.9h1.5c.8 0 1.5 0 2-.4.5-.2 1-.6 1.3-1.1.3-.5.5-1 .6-1.6a9.8 9.8 0 0 0 0-3.7c0-.6-.3-1.1-.6-1.6-.3-.4-.7-.8-1.2-1.1a4 4 0 0 0-2-.4Zm8.7 5c0-2.5.5-4.4 1.6-5.7 1-1.3 2.6-2 4.6-2 1 0 2 .2 2.7.6.8.3 1.5.8 2 1.5s.9 1.5 1.2 2.4c.2 1 .3 2 .3 3.2 0 2.4-.5 4.3-1.6 5.6-1 1.3-2.6 2-4.6 2-1 0-2-.2-2.8-.6-.8-.3-1.4-.8-2-1.5a7 7 0 0 1-1-2.4c-.3-1-.4-2-.4-3.2Zm3 0c0 .7 0 1.4.2 2 0 .6.3 1.2.5 1.6.3.5.6.8 1 1 .4.3 1 .4 1.5.4 1 0 1.8-.4 2.4-1.2.5-.8.8-2 .8-3.8 0-.8 0-1.4-.2-2-.1-.7-.3-1.2-.5-1.7-.3-.4-.6-.8-1-1-.4-.3-1-.4-1.5-.4-1 0-1.8.4-2.4 1.2-.5.8-.8 2.1-.8 3.9Zm15.1-.4-1.1-2.3h-.1l.3 2.3v7.7h-2.7V.7h2l5.7 7.8 1 2.3h.2l-.4-2.3V.8h2.8v14.8h-2.1l-5.6-7.8Zm17.4 4.4h-4.5l-1 3.3h-3L128.5.7h2.1l5.3 14.8h-3l-1.2-3.3ZM128 10h3.1l-1-3.2-.5-2.4h-.1l-.5 2.4-1 3.2Z" fill="#000"/></svg>